<?xml version="1.0" encoding="UTF-8"?>
<svg width="1641px" height="311px" viewBox="0 0 1641 311" version="1.1" xmlns="http://www.w3.org/2000/svg" xmlns:xlink="http://www.w3.org/1999/xlink">
    <!-- Generator: Sketch 43 (38999) - http://www.bohemiancoding.com/sketch -->
    <title>Logo blog</title>
    <desc>Created with Sketch.</desc>
    <defs></defs>
    <g id="Other-/-Schwag" stroke="none" stroke-width="1" fill="none" fill-rule="evenodd">
        <g id="Logo-blog">
            <g id="Group" fill="#50CEA2">
                <g transform="translate(354.789189, 57.734490)" id="Shape">
                    <path d="M83.0227027,57.8921206 C79.6497297,54.471215 76.2767568,51.0503093 71.5545946,48.9977659 C66.8324324,46.9452225 61.4356757,46.2610414 56.0389189,46.2610414 C51.9913514,46.2610414 48.6183784,46.9452225 45.2454054,47.6294037 C41.8724324,48.3135848 39.1740541,49.6819471 35.8010811,51.0503093 C33.1027027,52.4186716 30.4043243,54.471215 27.7059459,56.5237584 C26.3567568,57.8921206 24.332973,59.2604829 22.9837838,60.6288452 L22.3091892,54.471215 C20.96,51.0503093 18.9362162,48.9977659 14.8886486,48.9977659 L0.0475675676,48.9977659 L0.0475675676,158.466747 L25.0075676,158.466747 L25.0075676,79.1017357 C28.3805405,75.68083 32.4281081,72.9441055 35.8010811,70.8915621 C39.8486486,68.8390187 43.8962162,67.4706565 48.6183784,67.4706565 C54.6897297,67.4706565 59.4118919,69.5231999 62.1102703,72.9441055 C64.8086486,76.3650112 66.8324324,81.8384602 66.8324324,88.6802715 L66.8324324,157.782566 L91.7924324,157.782566 L91.7924324,87.9960904 C91.7924324,81.8384602 91.1178378,76.3650112 89.0940541,70.8915621 C88.4194595,66.1022942 86.3956757,61.3130263 83.0227027,57.8921206 L83.0227027,57.8921206 Z"></path>
                    <path d="M197.703784,103.048075 C198.378378,101.679713 199.052973,98.9429885 199.052973,95.5220828 C199.052973,87.9960904 197.703784,81.1542791 195.68,74.9966489 C193.656216,68.8390187 190.283243,63.3655697 186.235676,59.2604829 C182.188108,55.1553961 177.465946,51.7344905 171.394595,49.6819471 C165.997838,47.6294037 159.251892,46.2610414 153.180541,46.2610414 C145.085405,46.2610414 138.339459,47.6294037 131.593514,50.3661282 C125.522162,53.1028527 120.125405,57.2079395 115.403243,61.9972074 C110.681081,66.7864753 107.308108,72.2599244 105.284324,79.1017357 C103.260541,85.943547 101.911351,92.7853583 101.911351,100.311351 C101.911351,109.889887 103.260541,118.10006 105.958919,125.626053 C108.657297,133.152045 112.03027,139.309675 116.752432,144.098943 C121.474595,148.888211 126.871351,152.993298 133.617297,155.045841 C139.688649,157.782566 147.109189,159.150928 154.52973,159.150928 C158.577297,159.150928 161.95027,159.150928 165.997838,158.466747 C170.045405,157.782566 174.092973,157.098385 177.465946,155.730022 C181.513514,154.36166 184.886486,152.309117 188.259459,150.256573 C191.632432,148.20403 195.005405,145.467305 197.703784,142.0464 L198.378378,140.678037 L190.957838,131.099502 C189.608649,129.046958 187.584865,128.362777 185.561081,128.362777 C183.537297,128.362777 182.188108,129.046958 180.164324,130.415321 C178.815135,131.099502 176.791351,132.467864 174.092973,133.836226 C172.069189,135.204588 169.370811,135.88877 165.997838,137.257132 C163.299459,137.941313 159.251892,138.625494 155.204324,138.625494 C151.156757,138.625494 147.109189,137.941313 143.736216,136.572951 C140.363243,135.204588 137.664865,133.152045 134.966486,130.415321 C132.268108,127.678596 130.244324,124.25769 128.895135,120.152604 C127.545946,116.731698 126.871351,111.94243 126.196757,107.153162 L190.957838,107.153162 C195.005405,105.7848 196.354595,105.100619 197.703784,103.048075 L197.703784,103.048075 Z M128.220541,87.9960904 C129.56973,81.1542791 132.268108,75.68083 136.315676,71.5757433 C140.363243,67.4706565 146.434595,65.4181131 153.855135,65.4181131 C157.228108,65.4181131 160.601081,66.1022942 163.299459,67.4706565 C165.997838,68.8390187 168.696216,70.207381 170.045405,72.9441055 C172.069189,74.9966489 173.418378,77.7333734 174.092973,80.470098 C174.767568,83.2068225 175.442162,85.2593659 175.442162,87.9960904 L128.220541,87.9960904 L128.220541,87.9960904 Z"></path>
                    <path d="M290.123243,135.88877 C286.75027,133.836226 282.702703,132.467864 278.655135,131.783683 C274.607568,131.099502 269.885405,130.415321 265.837838,129.731139 C261.79027,129.046958 257.068108,129.046958 253.020541,129.046958 C248.972973,129.046958 245.6,128.362777 242.227027,128.362777 C239.528649,127.678596 236.83027,126.994415 234.806486,126.310234 C233.457297,125.626053 232.782703,124.25769 232.782703,122.889328 C232.782703,122.205147 233.457297,120.836785 234.131892,120.152604 C234.806486,119.468422 236.155676,118.10006 237.504865,117.415879 C239.528649,118.10006 240.877838,118.10006 242.901622,118.10006 C244.925405,118.10006 246.949189,118.784241 249.647568,118.784241 C255.718919,118.784241 261.115676,118.10006 265.837838,116.047517 C271.234595,114.679154 275.282162,111.94243 279.32973,109.205705 C283.377297,105.7848 286.075676,102.363894 288.099459,97.5746262 C290.123243,93.4695394 291.472432,87.9960904 291.472432,82.5226413 C291.472432,78.4175546 290.797838,74.3124678 289.448649,70.8915621 L297.543784,69.5231999 C300.242162,68.8390187 303.615135,67.4706565 303.615135,62.6813886 L303.615135,52.4186716 L273.258378,52.4186716 C269.885405,51.0503093 266.512432,49.6819471 262.464865,48.3135848 C258.417297,46.9452225 254.36973,46.9452225 249.647568,46.9452225 C243.576216,46.9452225 238.179459,47.6294037 232.782703,49.6819471 C227.385946,51.0503093 223.338378,53.7870339 219.290811,56.5237584 C215.243243,59.944664 212.544865,63.3655697 210.521081,68.1548376 C208.497297,72.2599244 207.148108,77.7333734 207.148108,83.2068225 C207.148108,90.0486338 208.497297,96.206264 211.87027,100.995532 C214.568649,105.100619 217.941622,108.521524 221.989189,111.258249 C220.64,111.94243 219.290811,112.626611 218.616216,113.994973 C216.592432,115.363336 215.243243,117.415879 213.894054,118.784241 C212.544865,120.836785 211.87027,122.205147 211.195676,124.25769 C210.521081,126.310234 210.521081,127.678596 210.521081,129.731139 C210.521081,133.836226 211.195676,137.941313 213.219459,140.678037 C214.568649,142.0464 215.917838,144.098943 217.267027,144.783124 C213.219459,146.835668 209.846486,148.888211 207.148108,152.309117 C203.775135,156.414203 201.751351,160.51929 201.751351,165.992739 C201.751351,170.097826 203.100541,173.518732 205.124324,177.623819 C207.148108,181.044724 210.521081,184.46563 214.568649,187.202354 C218.616216,189.939079 223.338378,191.991622 229.40973,193.359985 C235.481081,194.728347 242.227027,195.412528 250.322162,195.412528 C258.417297,195.412528 265.837838,194.044166 271.909189,191.991622 C277.980541,189.939079 283.377297,187.202354 288.099459,183.781449 C292.821622,180.360543 296.194595,176.255456 298.218378,171.466188 C300.916757,166.67692 301.591351,161.887653 301.591351,157.098385 C301.591351,151.624936 300.242162,147.519849 298.218378,144.098943 C296.869189,139.993856 293.496216,137.257132 290.123243,135.88877 L290.123243,135.88877 Z M235.481081,70.207381 C238.854054,67.4706565 243.576216,65.4181131 249.647568,65.4181131 C255.718919,65.4181131 260.441081,66.7864753 263.814054,70.207381 C267.187027,72.9441055 268.536216,77.0491923 268.536216,82.5226413 C268.536216,87.9960904 267.187027,92.1011772 263.814054,94.8379017 C260.441081,98.2588074 255.718919,99.6271696 249.647568,99.6271696 C246.274595,99.6271696 243.576216,98.9429885 241.552432,98.2588074 C239.528649,97.5746262 237.504865,96.206264 236.155676,94.8379017 C234.806486,93.4695394 233.457297,91.416996 232.782703,89.3644527 C232.108108,87.3119093 231.433514,84.5751847 231.433514,82.5226413 C230.758919,77.0491923 232.108108,72.9441055 235.481081,70.207381 L235.481081,70.207381 Z M271.909189,170.782007 C267.187027,173.518732 260.441081,174.887094 250.996757,174.887094 C246.274595,174.887094 242.227027,174.202913 238.854054,173.518732 C235.481081,172.834551 232.782703,172.150369 230.758919,170.782007 C228.735135,169.413645 227.385946,168.045283 226.711351,166.67692 C226.036757,165.308558 225.362162,163.256015 225.362162,161.887653 C225.362162,159.150928 226.036757,157.098385 228.060541,154.36166 C230.084324,152.309117 232.108108,150.256573 234.806486,148.888211 C238.179459,149.572392 241.552432,149.572392 244.925405,149.572392 C248.972973,149.572392 252.345946,150.256573 255.044324,150.256573 C258.417297,150.256573 261.79027,150.940754 264.488649,150.940754 C267.187027,150.940754 269.885405,151.624936 271.909189,152.309117 C273.932973,152.993298 275.282162,153.677479 276.631351,155.045841 C277.305946,156.414203 277.980541,157.782566 277.980541,159.150928 C277.980541,164.624377 275.956757,168.045283 271.909189,170.782007 L271.909189,170.782007 Z"></path>
                    <path d="M393.336216,61.3130263 C388.614054,56.5237584 383.217297,52.4186716 376.471351,49.6819471 C369.725405,46.9452225 362.979459,45.5768603 354.884324,45.5768603 C346.789189,45.5768603 339.368649,46.9452225 333.297297,49.6819471 C326.551351,52.4186716 321.154595,55.8395772 316.432432,61.3130263 C311.71027,66.1022942 308.337297,72.2599244 305.638919,79.1017357 C302.940541,85.943547 302.265946,93.4695394 302.265946,102.363894 C302.265946,110.574068 303.615135,118.784241 305.638919,125.626053 C308.337297,132.467864 311.71027,138.625494 316.432432,143.414762 C321.154595,148.20403 326.551351,152.309117 333.297297,155.045841 C340.043243,157.782566 346.789189,159.150928 354.884324,159.150928 C362.979459,159.150928 369.725405,157.782566 376.471351,155.045841 C383.217297,152.309117 388.614054,148.888211 393.336216,143.414762 C398.058378,138.625494 401.431351,132.467864 404.12973,125.626053 C406.828108,118.784241 407.502703,111.258249 407.502703,102.363894 C407.502703,94.1537206 406.153514,85.943547 404.12973,79.1017357 C401.431351,72.2599244 398.058378,66.1022942 393.336216,61.3130263 L393.336216,61.3130263 Z M375.122162,129.046958 C371.074595,135.204588 364.328649,137.941313 355.558919,137.941313 C346.789189,137.941313 340.043243,135.204588 335.995676,129.046958 C331.948108,122.889328 329.24973,113.994973 329.24973,103.048075 C329.24973,91.416996 331.273514,82.5226413 335.995676,76.3650112 C340.043243,70.207381 346.789189,67.4706565 355.558919,67.4706565 C364.328649,67.4706565 371.074595,70.207381 375.122162,76.3650112 C379.16973,82.5226413 381.868108,91.416996 381.868108,103.048075 C381.868108,113.994973 379.16973,122.889328 375.122162,129.046958 L375.122162,129.046958 Z"></path>
                    <path d="M447.978378,14.1045283 L434.486486,14.1045283 C432.462703,14.1045283 431.113514,14.7887094 429.764324,16.1570717 C428.415135,16.8412528 427.740541,18.2096151 427.740541,20.2621584 L427.740541,20.2621584 L423.018378,49.6819471 L406.153514,52.4186716 L406.153514,62.6813886 C406.153514,64.7339319 406.828108,66.1022942 408.177297,67.4706565 C409.526486,68.8390187 410.875676,68.8390187 412.224865,68.8390187 L422.343784,68.8390187 L422.343784,128.362777 C422.343784,137.941313 425.042162,145.467305 429.764324,150.256573 C434.486486,155.730022 441.907027,158.466747 450.676757,158.466747 C456.073514,158.466747 460.795676,157.782566 465.517838,155.730022 C470.24,154.36166 474.287568,151.624936 478.335135,148.20403 L479.684324,147.519849 L472.263784,135.204588 C470.914595,132.467864 468.890811,132.467864 467.541622,132.467864 C466.867027,132.467864 465.517838,132.467864 464.843243,133.152045 C464.168649,133.836226 463.494054,133.836226 462.819459,134.520407 C462.144865,135.204588 460.795676,135.204588 460.121081,135.88877 C458.771892,136.572951 458.097297,136.572951 456.073514,136.572951 C453.375135,136.572951 451.351351,135.88877 450.002162,133.836226 C448.652973,132.467864 447.978378,129.731139 447.978378,126.310234 L447.978378,68.1548376 L495.2,68.1548376 L495.2,156.414203 L520.834595,156.414203 L520.834595,48.9977659 L447.978378,48.9977659 L447.978378,14.1045283 L447.978378,14.1045283 Z"></path>
                    <path d="M520.16,5.21017357 C518.810811,3.84181131 516.787027,2.47344905 514.763243,1.78926792 C512.739459,1.10508678 510.715676,0.420905654 508.691892,0.420905654 C506.668108,0.420905654 504.644324,1.10508678 502.620541,1.78926792 C500.596757,2.47344905 499.247568,3.84181131 497.223784,5.21017357 C495.874595,6.57853583 494.525405,8.63107922 493.850811,10.6836226 C493.176216,12.736166 492.501622,14.7887094 492.501622,17.5254339 C492.501622,19.5779773 493.176216,21.6305207 493.850811,23.6830641 C494.525405,25.7356075 495.874595,27.1039698 497.223784,29.1565131 C498.572973,30.5248754 500.596757,31.8932377 502.620541,32.5774188 C504.644324,33.2615999 506.668108,33.9457811 508.691892,33.9457811 C510.715676,33.9457811 512.739459,33.2615999 514.763243,32.5774188 C516.787027,31.8932377 518.810811,30.5248754 520.16,29.1565131 C521.509189,27.7881509 522.858378,25.7356075 523.532973,23.6830641 C524.207568,21.6305207 524.882162,19.5779773 524.882162,17.5254339 C524.882162,15.4728905 524.207568,12.736166 523.532973,10.6836226 C522.858378,8.63107922 521.509189,6.57853583 520.16,5.21017357 L520.16,5.21017357 Z"></path>
                    <path d="M607.857297,57.8921206 C604.484324,53.7870339 600.436757,51.0503093 595.714595,48.9977659 C590.992432,46.9452225 584.921081,45.5768603 578.84973,45.5768603 C561.984865,45.5768603 547.818378,51.0503093 535.675676,62.6813886 L534.326486,63.3655697 L539.048649,71.5757433 C539.723243,72.9441055 541.072432,74.3124678 542.421622,74.9966489 C543.770811,76.3650112 545.12,76.3650112 547.143784,76.3650112 C549.167568,76.3650112 551.191351,75.68083 553.215135,74.3124678 C554.564324,72.9441055 556.588108,72.2599244 558.611892,70.8915621 C560.635676,69.5231999 563.334054,68.8390187 566.032432,67.4706565 C568.730811,66.7864753 572.103784,66.1022942 576.151351,66.1022942 C581.548108,66.1022942 585.595676,67.4706565 588.968649,70.8915621 C591.667027,74.3124678 593.016216,79.7859168 593.016216,86.6277281 L593.016216,92.1011772 C582.222703,92.7853583 572.103784,93.4695394 564.683243,95.5220828 C556.588108,97.5746262 549.842162,100.311351 544.445405,103.048075 C539.048649,106.468981 535.675676,109.889887 532.977297,113.994973 C530.953514,118.10006 529.604324,122.205147 529.604324,126.994415 C529.604324,131.783683 530.278919,136.572951 532.302703,139.993856 C533.651892,143.414762 536.35027,146.835668 539.048649,149.572392 C541.747027,152.309117 545.12,154.36166 549.167568,155.045841 C553.215135,156.414203 557.262703,157.098385 561.31027,157.098385 C565.357838,157.098385 568.730811,156.414203 572.103784,156.414203 C575.476757,155.730022 578.84973,154.36166 581.548108,152.993298 C584.246486,151.624936 586.944865,150.256573 589.643243,148.20403 C591.667027,146.835668 593.690811,145.467305 595.714595,143.414762 L597.063784,148.888211 C597.738378,151.624936 599.087568,152.993298 600.436757,153.677479 C601.785946,154.36166 603.80973,155.045841 605.833514,155.045841 L617.301622,155.045841 L617.301622,86.6277281 C617.301622,80.470098 616.627027,74.9966489 614.603243,69.5231999 C613.928649,66.1022942 611.23027,61.3130263 607.857297,57.8921206 L607.857297,57.8921206 Z M593.016216,127.678596 C589.643243,131.099502 585.595676,134.520407 582.222703,135.88877 C578.175135,137.941313 573.452973,138.625494 568.056216,138.625494 C566.032432,138.625494 564.008649,138.625494 562.659459,137.941313 C561.31027,137.257132 559.961081,136.572951 558.611892,135.88877 C557.262703,135.204588 556.588108,133.836226 555.913514,132.467864 C555.238919,131.099502 555.238919,129.046958 555.238919,126.994415 C555.238919,124.941871 555.913514,122.889328 557.262703,120.836785 C558.611892,118.784241 560.635676,117.415879 564.008649,116.047517 C567.381622,114.679154 571.429189,113.310792 576.151351,112.626611 C580.873514,111.94243 586.944865,111.258249 593.690811,110.574068 L593.690811,127.678596 L593.016216,127.678596 Z"></path>
                    <path d="M773.132973,125.626053 C770.434595,129.046958 766.387027,131.783683 762.339459,133.836226 C758.291892,135.88877 754.244324,137.257132 749.522162,137.257132 C743.450811,137.257132 738.728649,135.204588 736.03027,131.783683 C733.331892,128.362777 731.308108,122.889328 731.308108,116.047517 L731.308108,48.3135848 L707.022703,48.3135848 L705.673514,48.3135848 L663.848649,48.3135848 L663.848649,13.4203471 L650.356757,13.4203471 C648.332973,13.4203471 646.983784,14.1045283 645.634595,15.4728905 C644.285405,16.1570717 643.610811,17.5254339 643.610811,19.5779773 L643.610811,19.5779773 L638.888649,48.9977659 L622.023784,51.7344905 L622.023784,61.9972074 C622.023784,64.0497508 622.698378,65.4181131 624.047568,66.7864753 C625.396757,68.1548376 626.745946,68.1548376 628.76973,68.1548376 L638.214054,68.1548376 L638.214054,127.678596 C638.214054,137.257132 640.912432,144.783124 645.634595,149.572392 C650.356757,155.045841 657.777297,157.782566 667.221622,157.782566 C672.618378,157.782566 677.340541,157.098385 682.062703,155.045841 C686.784865,153.677479 690.832432,150.940754 694.88,147.519849 L696.229189,146.835668 L688.808649,134.520407 C687.459459,131.783683 685.435676,131.783683 684.086486,131.783683 C683.411892,131.783683 682.062703,131.783683 681.388108,132.467864 C680.713514,133.152045 680.038919,133.152045 679.364324,133.836226 C678.68973,134.520407 677.340541,134.520407 676.665946,135.204588 C675.316757,135.88877 674.642162,135.88877 672.618378,135.88877 C669.92,135.88877 667.896216,135.204588 666.547027,133.152045 C665.197838,131.783683 664.523243,129.046958 664.523243,125.626053 L664.523243,67.4706565 L707.697297,67.4706565 L707.697297,115.363336 C707.697297,121.520966 708.371892,126.994415 709.721081,132.467864 C711.07027,137.941313 713.768649,142.0464 716.467027,145.467305 C719.84,148.888211 723.212973,152.309117 727.935135,154.36166 C732.657297,156.414203 738.054054,157.098385 743.450811,157.098385 C750.871351,157.098385 757.617297,155.730022 763.014054,152.309117 C767.736216,149.572392 771.783784,146.835668 775.831351,143.414762 L777.180541,149.572392 C778.52973,152.993298 780.553514,155.045841 784.601081,155.045841 L799.442162,155.045841 L799.442162,48.9977659 L773.807568,48.9977659 L773.807568,125.626053 L773.132973,125.626053 Z"></path>
                    <path d="M883.766486,110.574068 C882.417297,107.153162 879.718919,104.416438 877.695135,102.363894 C874.996757,100.311351 872.298378,98.2588074 868.925405,96.8904451 C865.552432,95.5220828 862.179459,94.1537206 859.481081,92.7853583 C856.108108,91.416996 852.735135,90.7328149 850.036757,89.3644527 C847.338378,88.6802715 843.965405,87.3119093 841.941622,85.943547 C839.917838,84.5751847 837.894054,83.2068225 836.544865,81.8384602 C835.195676,80.470098 834.521081,79.1017357 834.521081,77.0491923 C834.521081,75.68083 835.195676,74.3124678 835.87027,72.9441055 C836.544865,71.5757433 837.894054,70.207381 838.568649,69.5231999 C839.917838,68.1548376 841.267027,67.4706565 843.290811,66.7864753 C845.314595,66.1022942 847.338378,66.1022942 850.036757,66.1022942 C853.40973,66.1022942 856.108108,66.7864753 858.131892,66.7864753 C860.83027,67.4706565 862.854054,68.1548376 864.203243,68.8390187 C866.227027,69.5231999 867.576216,70.207381 868.925405,71.5757433 C870.274595,72.2599244 872.298378,72.9441055 873.647568,72.9441055 C874.996757,72.9441055 876.345946,72.9441055 877.020541,72.2599244 C877.695135,71.5757433 879.044324,70.8915621 879.718919,69.5231999 L885.115676,59.944664 L884.441081,59.2604829 C880.393514,55.1553961 875.671351,51.7344905 869.6,49.6819471 C863.528649,47.6294037 856.782703,46.2610414 850.036757,46.2610414 C843.965405,46.2610414 837.894054,46.9452225 833.171892,48.9977659 C828.44973,51.0503093 823.727568,53.1028527 820.354595,56.5237584 C816.981622,59.2604829 814.283243,63.3655697 812.259459,67.4706565 C810.235676,71.5757433 809.561081,75.68083 809.561081,80.470098 C809.561081,85.2593659 810.235676,89.3644527 812.259459,92.7853583 C813.608649,96.206264 816.307027,98.9429885 818.330811,101.679713 C821.029189,103.732256 823.727568,105.7848 827.100541,107.837343 C830.473514,109.205705 833.846486,110.574068 837.219459,111.94243 C840.592432,113.310792 843.965405,113.994973 846.663784,115.363336 C850.036757,116.047517 852.735135,117.415879 854.758919,118.784241 C856.782703,120.152604 858.806486,121.520966 860.155676,122.889328 C861.504865,124.25769 862.179459,126.310234 862.179459,128.362777 C862.179459,130.415321 862.179459,131.783683 861.504865,133.152045 C860.83027,134.520407 860.155676,135.88877 858.806486,137.257132 C857.457297,138.625494 855.433514,139.309675 853.40973,139.993856 C851.385946,140.678037 848.687568,141.362219 845.314595,141.362219 C841.267027,141.362219 838.568649,140.678037 835.87027,139.993856 C833.171892,139.309675 831.148108,137.941313 829.124324,137.257132 C827.100541,135.88877 825.751351,135.204588 824.402162,134.520407 C822.378378,133.152045 821.029189,133.152045 819.005405,133.152045 C816.981622,133.152045 815.632432,133.836226 814.957838,134.520407 C813.608649,135.204588 812.934054,136.572951 812.259459,137.257132 L806.188108,146.835668 L807.537297,147.519849 C809.561081,149.572392 812.259459,150.940754 814.957838,152.993298 C817.656216,154.36166 820.354595,155.730022 823.727568,157.098385 C827.100541,158.466747 830.473514,159.150928 833.846486,159.835109 C837.219459,160.51929 841.267027,160.51929 844.64,160.51929 C851.385946,160.51929 857.457297,159.835109 862.854054,157.782566 C868.250811,155.730022 872.298378,153.677479 876.345946,150.256573 C879.718919,146.835668 882.417297,143.414762 884.441081,138.625494 C886.464865,134.520407 887.139459,129.046958 887.139459,124.25769 C886.464865,118.10006 885.79027,113.994973 883.766486,110.574068 L883.766486,110.574068 Z"></path>
                </g>
                <path d="M190.91027,97.1537206 L190.91027,188.833992 L142.339459,164.887653 L142.339459,194.991622 L217.219459,231.937403 L217.219459,78.68083 L190.91027,97.1537206 L190.91027,97.1537206 Z M163.926486,115.626611 L88.3718919,78.68083 L88.3718919,231.937403 L115.355676,213.464513 L115.355676,121.784241 L163.926486,145.730581 L163.926486,115.626611 L163.926486,115.626611 Z M190.91027,97.1537206 L190.91027,188.833992 L142.339459,164.887653 L142.339459,194.991622 L217.219459,231.937403 L217.219459,78.68083 L190.91027,97.1537206 L190.91027,97.1537206 Z M163.926486,115.626611 L88.3718919,78.68083 L88.3718919,231.937403 L115.355676,213.464513 L115.355676,121.784241 L163.926486,145.730581 L163.926486,115.626611 L163.926486,115.626611 Z M190.91027,97.1537206 L190.91027,188.833992 L142.339459,164.887653 L142.339459,194.991622 L217.219459,231.937403 L217.219459,78.68083 L190.91027,97.1537206 L190.91027,97.1537206 Z M163.926486,115.626611 L88.3718919,78.68083 L88.3718919,231.937403 L115.355676,213.464513 L115.355676,121.784241 L163.926486,145.730581 L163.926486,115.626611 L163.926486,115.626611 Z M153.132973,0 C68.8086486,0 0,69.7864753 0,155.309117 C0,240.831758 68.8086486,310.618233 153.132973,310.618233 C237.457297,310.618233 306.265946,240.831758 306.265946,155.309117 C306.265946,69.7864753 237.457297,0 153.132973,0 L153.132973,0 Z M153.132973,283.250988 C83.6497297,283.250988 26.9837838,225.779773 26.9837838,155.309117 C26.9837838,84.8384602 83.6497297,27.3672452 153.132973,27.3672452 C222.616216,27.3672452 279.282162,84.8384602 279.282162,155.309117 C279.282162,225.779773 222.616216,283.250988 153.132973,283.250988 L153.132973,283.250988 Z M190.91027,188.833992 L142.339459,164.887653 L142.339459,194.991622 L217.219459,231.937403 L217.219459,78.68083 L190.91027,97.1537206 L190.91027,188.833992 L190.91027,188.833992 Z M163.926486,115.626611 L88.3718919,78.68083 L88.3718919,231.937403 L115.355676,213.464513 L115.355676,121.784241 L163.926486,145.730581 L163.926486,115.626611 L163.926486,115.626611 Z M190.91027,97.1537206 L190.91027,188.833992 L142.339459,164.887653 L142.339459,194.991622 L217.219459,231.937403 L217.219459,78.68083 L190.91027,97.1537206 L190.91027,97.1537206 Z M88.3718919,78.68083 L88.3718919,231.937403 L115.355676,213.464513 L115.355676,121.784241 L163.926486,145.730581 L163.926486,115.626611 L88.3718919,78.68083 L88.3718919,78.68083 Z" id="Shape"></path>
            </g>
            <text id="blog" font-family="Lato-Regular, Lato" font-size="210" font-weight="normal" fill="#4A4A4A">
                <tspan x="1251" y="217">blog</tspan>
            </text>
        </g>
    </g>
</svg>